# xmcd
#
# Track frame offsets:
#	150
#	12125
#	28418
#	40392
#	54461
#	66627
#	80614
#	93986
#	120903
#	135967
#	149157
#	161120
#	174946
#	186954
#	200989
#	214833
#	228502
#	241692
#	255341
#	267714
#	276523
#	290848
#
# Disc length: 4047 seconds
#
# Revision: 0
# Processed by: cddbd v1.5.2PL0 Copyright (c) Steve Scherf et al.
# Submitted via: dBpowerAMP V4.0
#
DISCID=590fcd16
DTITLE=Various Artist - A Gospel story - CD1 Golden Gospel 1928-1954
DYEAR=2004
DGENRE=Gospel
TTITLE0=Sisters Rosetta  Marie Knight - Didnt' it rain
TTITLE1=Rhe Golden Gate Quartet - Swing down chariot
TTITLE2=The Dixie Hummingbirds - Lord come see about me
TTITLE3=Blind Willie Johnson - You'll need somebody on your bond
TTITLE4=Rev Kelsey - Little boy
TTITLE5=The Roberta Martin Singers - The old ship of Zion
TTITLE6=Clara Ward  - How I got over
TTITLE7=Mahalia Jackson - In the upper room part 1 and 2
TTITLE8=The Five Blind Boys Of Alabama - Canaan land
TTITLE9=The Original Five Blind Boys - Our father
TTITLE10=The Spirit of Memphis Quartet - Everytime I feel the Siprit
TTITLE11=Prof. Alex Bradford - Too close to heaven
TTITLE12=The Caravans - Let us run Run while the sun is shining
TTITLE13=The St Paul Baptist Church of Laos Angeles - I'm so glad Jesus lifted me
TTITLE14=The Soul Strrers Withe Sam Cook - He's my friend 'til the end
TTITLE15=The Swan Silvertones - My rock
TTITLE16=Brother Joe May - Precious Lord
TTITLE17=Josh Xhite - Joshua fought the battle of Jericho
TTITLE18=The Southern Sons - Go down moses
TTITLE19=Blind Willie Davis - When the saints go marching in
TTITLE20=Louis Armstrong - Nobody knows the trouble I've seen
TTITLE21=Sarah Vaughan - Sometimes I feel like a motherless child
EXTD=
EXTT0=
EXTT1=
EXTT2=
EXTT3=
EXTT4=
EXTT5=
EXTT6=
EXTT7=
EXTT8=
EXTT9=
EXTT10=
EXTT11=
EXTT12=
EXTT13=
EXTT14=
EXTT15=
EXTT16=
EXTT17=
EXTT18=
EXTT19=
EXTT20=
EXTT21=
PLAYORDER=
